<svg fill="none" height="495" viewBox="0 0 945 495" width="945" xmlns="http://www.w3.org/2000/svg" xmlns:xlink="http://www.w3.org/1999/xlink"><clipPath id="clip0_847_239"><path d="M0 0H945V495H0Z"/></clipPath><g clip-path="url(#clip0_847_239)"><path d="M0 0H945V495H0Z" fill="#3e5fff"/><path d="M81.5613-28.1817H860.961L525.687 491.338H432.6L81.5613-28.1817Z" fill="#95d1f9"/><path d="M471.413 227.332V227.636H471.986L476.374 230.206 480.763 227.636H481.336V227.332L481.711 227.554 481.851 227.636H485.933V230.026L611.388 303.497C623.493 310.592 634.406 319.571 643.518 330.236 659.647 349.119 671.086 371.725 676.688 396.24L716.117 568.531C728.398 622.231 711.274 678.389 671.086 716.039L633.774 751.007H566.702L522.067 702.189H481.336V702.166H471.413V702.189H430.682L386.047 751.007H318.974L281.663 716.039C241.475 678.389 224.351 622.231 236.632 568.531L276.061 396.24C281.663 371.725 293.102 349.119 309.231 330.236 318.343 319.571 329.255 310.592 341.361 303.497L466.816 230.026V227.636H470.898L471.038 227.554 471.413 227.332Z" fill="#0ead69"/><path clip-rule="evenodd" d="M635.283 321.514 525.687 491.338H432.6L317.699 321.291C324.848 314.465 332.807 308.511 341.361 303.497L466.816 230.026V227.636H470.898L471.038 227.554 471.413 227.332V227.636H471.986L476.374 230.206 480.763 227.636H481.336V227.332L481.711 227.554 481.851 227.636H485.933V230.026L611.388 303.497C620.036 308.565 628.075 314.595 635.283 321.514Z" fill="#a3f7ca" fill-rule="evenodd"/><path d="M383.141 181.733C411.621 181.733 434.71 158.624 434.71 130.117 434.71 101.61 411.621 78.5012 383.141 78.5012 354.66 78.5012 331.571 101.61 331.571 130.117 331.571 158.624 354.66 181.733 383.141 181.733Z" fill="#000000"/><path d="M409.96 228.397C426.323 228.397 439.587 215.121 439.587 198.743 439.587 182.366 426.323 169.09 409.96 169.09 393.598 169.09 380.333 182.366 380.333 198.743 380.333 215.121 393.598 228.397 409.96 228.397Z" fill="#000000"/><path d="M536.994 228.397C553.356 228.397 566.621 215.121 566.621 198.743 566.621 182.366 553.356 169.09 536.994 169.09 520.631 169.09 507.367 182.366 507.367 198.743 507.367 215.121 520.631 228.397 536.994 228.397Z" fill="#000000"/><path d="M559.731 183.044C588.212 183.044 611.301 159.935 611.301 131.428 611.301 102.922 588.212 79.8124 559.731 79.8124 531.251 79.8124 508.162 102.922 508.162 131.428 508.162 159.935 531.251 183.044 559.731 183.044Z" fill="#000000"/><path d="M414.697 299.201C411.796 295.548 409.247 292.235 410.019 286.581L429.06 147.713H516.806L535.836 286.51C536.62 292.223 533.38 295.677 531.169 299.189 528.959 302.701 510.876 321.128 510.876 321.128 491.671 341.908 459.108 342.704 438.897 322.896 438.897 322.896 418.124 303.486 414.697 299.177V299.201Z" fill="#e47b4c"/><path d="M419.2 130.96C421.13 121.079 414.709 111.55 404.884 109.63 395.059 107.698 385.503 114.09 383.562 123.971 381.632 133.852 386.462 151.471 396.311 153.402 406.159 155.334 417.27 140.782 419.2 130.96Z" fill="#e47b4c"/><path d="M566.235 131.639C566.118 121.571 557.907 113.552 547.871 113.657 537.836 113.774 529.801 121.969 529.906 132.037 530.023 142.105 538.327 158.378 548.363 158.261 558.398 158.144 566.34 141.637 566.235 131.627V131.639Z" fill="#e47b4c"/><path d="M474.805 226.571C432.651 227.039 397.667 194.119 395.527 152.033L392.392 109.419C390.03 63.3055 426.475 24.4736 472.582 23.9702 518.689 23.455 555.965 61.4675 554.644 107.616L552.456 150.288C551.24 192.422 516.981 226.103 474.828 226.571H474.816 474.805Z" fill="#e47b4c"/><path d="M525.005 207.652 527.918 228.807C514.28 238.266 497.098 242.434 479.296 241.614 465.787 240.994 453.95 234.848 443.131 228.292 439.61 226.161 441.915 220.671 445.915 221.63 450.874 223.024 457.155 225.107 462.36 226.208 489.764 232.015 507.613 221.607 525.005 207.652Z" fill="#cc6942"/><g fill="#000000"><path d="M455.307 128.221C455.342 131.686 450.523 128.771 444.605 128.829 438.686 128.888 433.926 131.92 433.891 128.455 433.856 124.99 438.616 122.133 444.535 122.063 450.453 121.993 455.272 124.755 455.318 128.209L455.307 128.221Z"/><path d="M513.075 127.588C513.11 131.054 508.279 128.139 502.373 128.197 496.454 128.267 491.694 131.288 491.659 127.823 491.624 124.357 496.384 121.501 502.303 121.431 508.221 121.36 513.04 124.123 513.087 127.577L513.075 127.588Z"/><path d="M452.032 100.346C453.131 99.4801 453.81 98.1455 453.786 96.6587 453.728 94.2002 451.693 92.1866 449.201 92.2334 448.722 92.2334 438.195 92.491 428.627 100.698 426.709 102.325 426.499 105.146 428.125 107.101 429.75 108.998 432.604 109.22 434.522 107.593 441.517 101.576 449.272 101.365 449.365 101.365 450.359 101.341 451.272 100.908 452.032 100.358V100.346Z"/><path d="M494.513 99.8781C493.402 99.0352 492.677 97.7123 492.677 96.2372 492.677 93.7671 494.665 91.7184 497.156 91.7066 497.636 91.7066 508.162 91.7301 517.917 99.7142 519.87 101.295 520.151 104.116 518.56 106.106 516.981 108.038 514.128 108.319 512.174 106.738 505.051 100.873 497.297 100.838 497.191 100.838 496.197 100.838 495.273 100.428 494.501 99.8898L494.513 99.8781Z"/><path d="M475.144 173.585C473.588 173.187 472.15 173.96 471.693 175.306 471.202 176.711 471.974 178.28 473.389 178.748 474.044 178.959 474.711 179.169 475.378 179.333 488.162 182.611 503.156 176.453 509.566 165.332 509.917 164.7 510.011 163.962 509.823 163.26 509.636 162.545 509.192 161.972 508.548 161.597 508.338 161.468 508.116 161.386 507.858 161.328 506.665 161.024 505.414 161.562 504.806 162.627 499.577 171.735 487.261 176.758 476.699 174.053 476.173 173.913 475.623 173.784 475.12 173.573V173.609H475.144V173.585Z"/><path clip-rule="evenodd" d="M541.485 103.554C541.485 103.554 541.976 111.304 542.012 113.997L542.07 119.499V119.499C542.07 122.482 544.489 124.901 547.472 124.901H548.694C552.172 124.901 555.057 122.212 555.302 118.743L556.258 105.193C557.556 56.0824 518.607 16.185 472.5 16.7001 426.393 17.2153 388.954 58.8452 391.351 107.909L392.087 118.62C392.325 122.081 395.202 124.767 398.671 124.767H398.863C402.401 124.767 405.27 121.899 405.27 118.36V118.36C405.27 118.36 405.703 109.021 406.042 104.783 408.545 73.7833 427.551 52.9566 470.009 50.3225 512.467 47.6885 536.351 71.9219 541.509 103.566L541.485 103.554Z" fill-rule="evenodd"/></g><path d="M392.275 167.931C398.554 167.931 403.644 162.836 403.644 156.551 403.644 150.267 398.554 145.172 392.275 145.172 385.996 145.172 380.906 150.267 380.906 156.551 380.906 162.836 385.996 167.931 392.275 167.931Z" fill="#ffbd6e"/><path d="M554.667 169.652C560.946 169.652 566.036 164.557 566.036 158.272 566.036 151.988 560.946 146.893 554.667 146.893 548.388 146.893 543.298 151.988 543.298 158.272 543.298 164.557 548.388 169.652 554.667 169.652Z" fill="#ffbd6e"/><path d="M505.408 353.854H452.008C441.072 353.854 432.207 362.728 432.207 373.673V494.723C432.207 505.669 441.072 514.542 452.008 514.542H505.408C516.344 514.542 525.209 505.669 525.209 494.723V373.673C525.209 362.728 516.344 353.854 505.408 353.854Z" fill="#ffffff"/><path d="M534.375 431.324H457.449C452.082 431.324 448.553 436.916 450.832 441.773L459.557 460.268C462.399 466.277 467.301 471.085 473.378 473.783L529.057 498.483C530.723 499.219 532.562 499.612 534.4 499.612 541.653 499.612 547.559 493.725 547.559 486.44V444.471C547.559 437.21 541.678 431.299 534.4 431.299" fill="#e47b4c"/><path d="M86.8418 48.6952C87.8208 44.1675 94.2798 44.1675 95.2589 48.6952L101.752 78.7232C102.063 80.1611 103.087 81.3408 104.466 81.8514L121.608 88.1944C125.357 89.5816 125.357 94.8837 121.608 96.2709L104.466 102.614C103.087 103.124 102.063 104.304 101.752 105.742L95.2589 135.77C94.2798 140.298 87.8208 140.298 86.8418 135.77L80.3486 105.742C80.0377 104.304 79.0141 103.124 77.6343 102.614L60.4925 96.2709C56.7438 94.8837 56.7438 89.5816 60.4925 88.1944L77.6343 81.8514C79.0141 81.3408 80.0377 80.1611 80.3486 78.7232L86.8418 48.6952Z" fill="#ffffff"/><path d="M838.517 101.251C839.13 98.4173 843.173 98.4173 843.786 101.251L847.849 120.045C848.044 120.945 848.685 121.683 849.548 122.003L860.277 125.973C862.623 126.841 862.623 130.159 860.277 131.028L849.548 134.998C848.685 135.317 848.044 136.055 847.849 136.955L843.786 155.749C843.173 158.583 839.13 158.583 838.517 155.749L834.453 136.955C834.259 136.055 833.618 135.317 832.755 134.998L822.026 131.028C819.68 130.159 819.68 126.841 822.026 125.973L832.755 122.003C833.618 121.683 834.259 120.945 834.453 120.045L838.517 101.251Z" fill="#ffffff"/><path d="M712.914 289.704C713.409 287.415 716.674 287.415 717.169 289.704L720.451 304.882C720.608 305.609 721.126 306.206 721.823 306.464L730.488 309.67C732.383 310.371 732.383 313.051 730.488 313.753L721.823 316.959C721.126 317.217 720.608 317.813 720.451 318.54L717.169 333.719C716.674 336.008 713.409 336.008 712.914 333.719L709.632 318.54C709.475 317.813 708.957 317.217 708.26 316.959L699.595 313.753C697.7 313.051 697.7 310.371 699.595 309.67L708.26 306.464C708.957 306.206 709.475 305.609 709.632 304.882L712.914 289.704Z" fill="#ffffff"/><path clip-rule="evenodd" d="M294.812 251.994C294.16 249.85 294.707 247.532 296.169 245.834 311.446 228.1 320.681 205.015 320.681 179.772 320.681 123.842 275.341 78.5012 219.411 78.5012 163.48 78.5012 118.14 123.842 118.14 179.772 118.14 235.702 163.48 281.042 219.411 281.042 232.504 281.042 245.017 278.558 256.504 274.034 258.702 273.168 261.208 273.492 263.042 274.982L298.507 303.793C303.335 307.715 310.325 303.016 308.516 297.064L294.812 251.994Z" fill="#ffffff" fill-rule="evenodd"/><path clip-rule="evenodd" d="M663.753 248.382C664.292 246.613 663.84 244.698 662.633 243.297 650.021 228.656 642.397 209.597 642.397 188.757 642.397 142.583 679.829 105.15 726.004 105.15 772.178 105.15 809.611 142.583 809.611 188.757 809.611 234.932 772.178 272.364 726.004 272.364 715.194 272.364 704.863 270.313 695.38 266.578 693.565 265.863 691.496 266.131 689.982 267.361L660.703 291.146C656.717 294.385 650.946 290.506 652.44 285.592L663.753 248.382Z" fill="#ffffff" fill-rule="evenodd"/><path d="M217.815 149.819C206.862 138.866 189.105 138.866 178.153 149.819 167.201 160.771 167.201 178.528 178.153 189.48L210.09 221.417C215.238 226.565 223.584 226.565 228.731 221.417L260.668 189.48C271.62 178.528 271.62 160.771 260.668 149.819 249.716 138.866 231.959 138.866 221.006 149.819L219.411 151.414 217.815 149.819Z" fill="#ff7059"/><circle cx="725.386" cy="188.757" fill="#ffbd6e" r="46.0481"/><path d="M725.248 206.825C724.48 206.619 723.765 206.994 723.531 207.659 723.282 208.352 723.656 209.132 724.35 209.374 724.672 209.484 725.003 209.589 725.331 209.677 731.644 211.37 739.1 208.405 742.331 202.931 742.51 202.619 742.559 202.257 742.47 201.905 742.38 201.553 742.162 201.263 741.845 201.074 741.743 201.007 741.634 200.969 741.507 200.935 740.918 200.777 740.298 201.035 739.99 201.56 737.352 206.041 731.225 208.46 726.015 207.062 725.754 206.992 725.486 206.92 725.235 206.813L725.231 206.828 725.248 206.825Z" fill="#000000"/><path d="M752.357 199.359C755.583 199.359 758.198 196.741 758.198 193.513 758.198 190.284 755.583 187.666 752.357 187.666 749.131 187.666 746.516 190.284 746.516 193.513 746.516 196.741 749.131 199.359 752.357 199.359Z" fill="#e59a48"/><path d="M697.018 199.359C700.244 199.359 702.859 196.741 702.859 193.513 702.859 190.284 700.244 187.666 697.018 187.666 693.792 187.666 691.177 190.284 691.177 193.513 691.177 196.741 693.792 199.359 697.018 199.359Z" fill="#e59a48"/><path d="M715.711 184.261C715.711 185.975 713.335 184.506 710.403 184.506 707.472 184.506 705.096 185.975 705.096 184.261 705.096 182.547 707.472 181.157 710.403 181.157 713.335 181.157 715.711 182.547 715.711 184.261Z" fill="#000000"/><path d="M744.339 184.261C744.339 185.975 741.963 184.506 739.032 184.506 736.101 184.506 733.724 185.975 733.724 184.261 733.724 182.547 736.101 181.157 739.032 181.157 741.963 181.157 744.339 182.547 744.339 184.261Z" fill="#000000"/><path d="M714.17 170.444C714.718 170.019 715.065 169.363 715.058 168.629 715.042 167.409 714.047 166.405 712.812 166.413 712.572 166.414 707.365 166.482 702.581 170.491 701.624 171.286 701.501 172.684 702.296 173.657 703.09 174.607 704.502 174.73 705.459 173.935 708.954 170.992 712.795 170.931 712.843 170.931 713.337 170.923 713.792 170.714 714.17 170.444Z" fill="#000000"/><path d="M735.204 170.444C734.657 170.019 734.309 169.363 734.317 168.629 734.333 167.409 735.328 166.405 736.562 166.413 736.803 166.414 742.01 166.482 746.794 170.491 747.75 171.286 747.874 172.684 747.079 173.657 746.284 174.607 744.872 174.73 743.916 173.935 740.42 170.992 736.58 170.931 736.532 170.931 736.038 170.923 735.582 170.714 735.204 170.444Z" fill="#000000"/></g></svg>